<svg width="23" height="24" viewBox="0 0 23 24" fill="none" xmlns="http://www.w3.org/2000/svg"><g id="Email"><g id="Group"><path id="Vector" d="M2.875 5.29102V4.57227C2.68438 4.57227 2.50156 4.64799 2.36677 4.78278C2.23198 4.91757 2.15625 5.10039 2.15625 5.29102H2.875ZM20.125 5.29102H20.8438C20.8438 5.10039 20.768 4.91757 20.6332 4.78278C20.4984 4.64799 20.3156 4.57227 20.125 4.57227V5.29102ZM2.875 6.00977H20.125V4.57227H2.875V6.00977ZM19.4062 5.29102V16.791H20.8438V5.29102H19.4062ZM18.2083 17.9889H4.79167V19.4264H18.2083V17.9889ZM3.59375 16.791V5.29102H2.15625V16.791H3.59375ZM4.79167 17.9889C4.13042 17.9889 3.59375 17.4523 3.59375 16.791H2.15625C2.15625 17.49 2.43391 18.1603 2.92815 18.6545C3.42238 19.1488 4.09271 19.4264 4.79167 19.4264V17.9889ZM19.4062 16.791C19.4062 17.4523 18.8696 17.9889 18.2083 17.9889V19.4264C18.9073 19.4264 19.5776 19.1488 20.0719 18.6545C20.5661 18.1603 20.8438 17.49 20.8438 16.791H19.4062Z" fill="black"/><path id="Vector_2" d="M2.875 5.29102L11.5 13.916L20.125 5.29102" stroke="black" stroke-width="1.5" stroke-linecap="round" stroke-linejoin="round"/></g></g></svg>