<svg width="20" height="20" viewBox="0 0 20 20" fill="none" xmlns="http://www.w3.org/2000/svg">
<g id="Pay">
<path id="Vector" d="M12.5001 5.83333H7.50008M12.5001 9.16667H7.50008M12.5001 12.5H9.16675M4.16675 2.5H15.8334V17.5L14.9734 16.7633C14.6714 16.5045 14.2867 16.3622 13.8888 16.3622C13.491 16.3622 13.1063 16.5045 12.8042 16.7633L11.9442 17.5L11.0851 16.7633C10.783 16.5042 10.3981 16.3618 10.0001 16.3618C9.60207 16.3618 9.2172 16.5042 8.91508 16.7633L8.05591 17.5L7.19592 16.7633C6.89385 16.5045 6.50915 16.3622 6.11133 16.3622C5.71351 16.3622 5.32881 16.5045 5.02675 16.7633L4.16675 17.5V2.5Z" stroke="black" stroke-width="2" stroke-linecap="round" stroke-linejoin="round"/>
</g>
</svg>
