<svg width="32" height="32" viewBox="0 0 32 32" fill="none" xmlns="http://www.w3.org/2000/svg">
<rect x="32" y="32" width="32" height="32" rx="16" transform="rotate(-180 32 32)" fill="#EBF1FA"/>
<g clip-path="url(#clip0_1512_111532)">
<path d="M22 17.0007C7.78698 17.0007 24.8068 17.0007 10 17.0007C9.73478 17.0007 9.48043 16.8953 9.29289 16.7078C9.10536 16.5203 9 16.2659 9 16.0007C9 15.7355 9.10536 15.4811 9.29289 15.2936C9.48043 15.106 9.73478 15.0007 10 15.0007C17.3475 15.0007 14.0241 15.0001 16 15.0001C16.2652 15.0001 7 14.9996 22 15.0007C22.2652 15.0007 22.5196 15.106 22.7071 15.2936C22.8946 15.4811 23 15.7355 23 16.0007C23 16.2659 22.8946 16.5203 22.7071 16.7078C22.5196 16.8953 22.2652 17.0007 22 17.0007Z" fill="#666666"/>
</g>
<defs>
<clipPath id="clip0_1512_111532">
<rect width="24" height="24" fill="white" transform="matrix(-1 0 0 -1 28 28)"/>
</clipPath>
</defs>
</svg>
