<svg width="72" height="72" viewBox="0 0 72 72" fill="none" xmlns="http://www.w3.org/2000/svg">
<g id="Step 4" clip-path="url(#clip0_1503_111686)">
<path id="Vector" d="M72 36C72 16.1177 55.8823 0 36 0C16.1177 0 0 16.1177 0 36C0 55.8823 16.1177 72 36 72C55.8823 72 72 55.8823 72 36Z" fill="white"/>
<path id="Vector_2" d="M26.9585 42.4583C26.9585 43.1435 27.2307 43.8006 27.7151 44.285C28.1996 44.7695 28.8567 45.0417 29.5418 45.0417C30.227 45.0417 30.8841 44.7695 31.3685 44.285C31.853 43.8006 32.1252 43.1435 32.1252 42.4583C32.1252 41.7732 31.853 41.1161 31.3685 40.6316C30.8841 40.1472 30.227 39.875 29.5418 39.875C28.8567 39.875 28.1996 40.1472 27.7151 40.6316C27.2307 41.1161 26.9585 41.7732 26.9585 42.4583ZM39.8752 42.4583C39.8752 43.1435 40.1473 43.8006 40.6318 44.285C41.1163 44.7695 41.7734 45.0417 42.4585 45.0417C43.1436 45.0417 43.8007 44.7695 44.2852 44.285C44.7697 43.8006 45.0418 43.1435 45.0418 42.4583C45.0418 41.7732 44.7697 41.1161 44.2852 40.6316C43.8007 40.1472 43.1436 39.875 42.4585 39.875C41.7734 39.875 41.1163 40.1472 40.6318 40.6316C40.1473 41.1161 39.8752 41.7732 39.8752 42.4583Z" stroke="#F05735" stroke-width="2" stroke-linecap="round" stroke-linejoin="round"/>
<path id="Vector_3" d="M26.9585 42.459H24.3752V37.2923M23.0835 26.959H37.2918V42.459M32.1252 42.459H39.8752M45.0418 42.459H47.6252V34.709M47.6252 34.709H37.2918M47.6252 34.709L43.7502 28.2507H37.2918M24.3752 32.1257H29.5418" stroke="#F05735" stroke-width="2" stroke-linecap="round" stroke-linejoin="round"/>
<path id="Vector_4" d="M25 19.5C25 15.3579 21.6421 12 17.5 12C13.3579 12 10 15.3579 10 19.5V23.5C10 27.6421 13.3579 31 17.5 31C21.6421 31 25 27.6421 25 23.5V19.5Z" fill="#0D0D0D"/>
<path id="Vector_5" d="M16.3516 20.4014H17.1309C17.4772 20.4014 17.7643 20.3285 17.9922 20.1826C18.2201 20.0322 18.3887 19.8294 18.498 19.5742C18.612 19.3145 18.6689 19.0228 18.6689 18.6992C18.6689 18.3164 18.6188 17.9951 18.5186 17.7354C18.4183 17.4756 18.2679 17.2796 18.0674 17.1475C17.8714 17.0153 17.623 16.9492 17.3223 16.9492C17.0397 16.9492 16.7936 17.0199 16.584 17.1611C16.3743 17.2979 16.2126 17.4938 16.0986 17.749C15.9847 18.0042 15.9277 18.305 15.9277 18.6514H14.7246C14.7246 18.1455 14.8294 17.6852 15.0391 17.2705C15.2533 16.8558 15.554 16.5254 15.9414 16.2793C16.3333 16.0332 16.7936 15.9102 17.3223 15.9102C17.8281 15.9102 18.2725 16.0173 18.6553 16.2314C19.0381 16.4411 19.3366 16.7555 19.5508 17.1748C19.7695 17.5895 19.8789 18.1068 19.8789 18.7266C19.8789 18.9772 19.8311 19.2461 19.7354 19.5332C19.6442 19.8158 19.4961 20.0801 19.291 20.3262C19.0905 20.5723 18.8262 20.7751 18.498 20.9346C18.1745 21.0895 17.778 21.167 17.3086 21.167H16.3516V20.4014ZM16.3516 21.4404V20.6816H17.3086C17.8646 20.6816 18.318 20.7568 18.6689 20.9072C19.0199 21.0576 19.291 21.2581 19.4824 21.5088C19.6738 21.7594 19.806 22.0352 19.8789 22.3359C19.9564 22.6322 19.9951 22.9284 19.9951 23.2246C19.9951 23.6895 19.9268 24.1019 19.79 24.4619C19.6579 24.8219 19.4688 25.1273 19.2227 25.3779C18.9811 25.6286 18.6986 25.8177 18.375 25.9453C18.0514 26.0729 17.6982 26.1367 17.3154 26.1367C16.9417 26.1367 16.5954 26.0752 16.2764 25.9521C15.9574 25.8291 15.6771 25.6514 15.4355 25.4189C15.194 25.182 15.0049 24.8926 14.8682 24.5508C14.736 24.2044 14.6699 23.8102 14.6699 23.3682H15.8799C15.8799 23.7145 15.9368 24.0176 16.0508 24.2773C16.1647 24.5371 16.3288 24.7399 16.543 24.8857C16.7572 25.027 17.0146 25.0977 17.3154 25.0977C17.6162 25.0977 17.876 25.0316 18.0947 24.8994C18.3135 24.7627 18.4821 24.5576 18.6006 24.2842C18.7236 24.0107 18.7852 23.6667 18.7852 23.252C18.7852 22.8372 18.7168 22.4977 18.5801 22.2334C18.4479 21.9645 18.2588 21.7663 18.0127 21.6387C17.7666 21.5065 17.4727 21.4404 17.1309 21.4404H16.3516Z" fill="white"/>
</g>
<defs>
<clipPath id="clip0_1503_111686">
<rect width="72" height="72" fill="white"/>
</clipPath>
</defs>
</svg>
