<svg width="72" height="72" viewBox="0 0 72 72" fill="none" xmlns="http://www.w3.org/2000/svg">
<g id="Step 3" clip-path="url(#clip0_1503_111681)">
<path id="Vector" d="M72 36C72 16.1177 55.8823 0 36 0C16.1177 0 0 16.1177 0 36C0 55.8823 16.1177 72 36 72C55.8823 72 72 55.8823 72 36Z" fill="white"/>
<path id="Vector_2" d="M49 42.3C49 42.832 48.6967 43.294 48.2344 43.532L36.8233 49.748C36.5922 49.916 36.3033 50 36 50C35.6967 50 35.4078 49.916 35.1767 49.748L23.7656 43.532C23.534 43.414 23.3402 43.2369 23.2052 43.0196C23.0703 42.8024 22.9993 42.5536 23 42.3V29.7C23 29.168 23.3033 28.706 23.7656 28.468L35.1767 22.252C35.4078 22.084 35.6967 22 36 22C36.3033 22 36.5922 22.084 36.8233 22.252L48.2344 28.468C48.6967 28.706 49 29.168 49 29.7V42.3ZM36 25.01L33.27 26.508L41.7778 31.254L44.6089 29.7L36 25.01ZM27.3911 29.7L36 34.39L38.8311 32.85L30.3378 28.09L27.3911 29.7ZM25.8889 41.474L34.5556 46.206V36.812L25.8889 32.094V41.474ZM46.1111 41.474V32.094L37.4444 36.812V46.206L46.1111 41.474Z" fill="#F05735"/>
<path id="Vector_3" d="M25 19.5C25 15.3579 21.6421 12 17.5 12C13.3579 12 10 15.3579 10 19.5V23.5C10 27.6421 13.3579 31 17.5 31C21.6421 31 25 27.6421 25 23.5V19.5Z" fill="#0D0D0D"/>
<path id="Vector_4" d="M20.3643 24.9609V26H14.7998V25.0908L17.541 21.4609C17.8783 21.0143 18.1357 20.6361 18.3135 20.3262C18.4912 20.0117 18.6143 19.7314 18.6826 19.4854C18.751 19.2347 18.7852 18.9795 18.7852 18.7197C18.7852 18.3916 18.7327 18.0954 18.6279 17.8311C18.5231 17.5622 18.3704 17.348 18.1699 17.1885C17.9694 17.029 17.7279 16.9492 17.4453 16.9492C17.0762 16.9492 16.7731 17.0358 16.5361 17.209C16.3037 17.3776 16.1328 17.6146 16.0234 17.9199C15.9141 18.2253 15.8594 18.5762 15.8594 18.9727H14.6494C14.6494 18.4121 14.752 17.8994 14.957 17.4346C15.1667 16.9697 15.4788 16.6006 15.8936 16.3271C16.3083 16.0492 16.8255 15.9102 17.4453 15.9102C17.9785 15.9102 18.4342 16.0218 18.8125 16.2451C19.1953 16.4639 19.487 16.7738 19.6875 17.1748C19.8926 17.5713 19.9951 18.0361 19.9951 18.5693C19.9951 18.861 19.9541 19.1572 19.8721 19.458C19.7946 19.7542 19.6852 20.0505 19.5439 20.3467C19.4072 20.6429 19.2454 20.9346 19.0586 21.2217C18.8717 21.5088 18.6712 21.7913 18.457 22.0693L16.249 24.9609H20.3643Z" fill="white"/>
</g>
<defs>
<clipPath id="clip0_1503_111681">
<rect width="72" height="72" fill="white"/>
</clipPath>
</defs>
</svg>
