<svg width="72" height="72" viewBox="0 0 72 72" fill="none" xmlns="http://www.w3.org/2000/svg">
<g id="Step 2" clip-path="url(#clip0_1503_111667)">
<path id="Vector" d="M72 36C72 16.1177 55.8823 0 36 0C16.1177 0 0 16.1177 0 36C0 55.8823 16.1177 72 36 72C55.8823 72 72 55.8823 72 36Z" fill="white"/>
<g id="Clip path group">
<mask id="mask0_1503_111667" style="mask-type:luminance" maskUnits="userSpaceOnUse" x="20" y="20" width="32" height="32">
<g id="clip0_1502_111621">
<path id="Vector_2" d="M52 20H20V52H52V20Z" fill="white"/>
</g>
</mask>
<g mask="url(#mask0_1503_111667)">
<g id="Group">
<path id="Vector_3" d="M38.6668 30.6673H26.2224C25.9866 30.6673 25.7605 30.5737 25.5938 30.407C25.4271 30.2403 25.3335 30.0142 25.3335 29.7784V26.2229C25.3335 25.9871 25.4271 25.761 25.5938 25.5943C25.7605 25.4276 25.9866 25.334 26.2224 25.334H38.6668C38.9026 25.334 39.1287 25.4276 39.2954 25.5943C39.4621 25.761 39.5557 25.9871 39.5557 26.2229V29.7784C39.5557 30.0142 39.4621 30.2403 39.2954 30.407C39.1287 30.5737 38.9026 30.6673 38.6668 30.6673ZM27.1113 28.8895H37.7779V27.0584H27.1113V28.8895Z" fill="#F05735"/>
<path id="Vector_4" d="M38.6668 32.5156H26.2224C25.9866 32.5156 25.7605 32.6093 25.5938 32.776C25.4271 32.9427 25.3335 33.1688 25.3335 33.4045V36.889C25.3335 37.1247 25.4271 37.3508 25.5938 37.5175C25.7605 37.6842 25.9866 37.7778 26.2224 37.7778H36.3202L39.5557 34.489V33.4045C39.5557 33.1688 39.4621 32.9427 39.2954 32.776C39.1287 32.6093 38.9026 32.5156 38.6668 32.5156ZM37.7779 36.0001H27.1113V34.2223H37.7779V36.0001Z" fill="#F05735"/>
<path id="Vector_5" d="M29.8312 48.0085V47.9551L30.1156 46.7196H23.5556V23.5551H41.3334V32.6662L43.1112 30.9862V22.6662C43.1112 22.4305 43.0175 22.2044 42.8508 22.0377C42.6841 21.871 42.458 21.7773 42.2223 21.7773H22.6667C22.431 21.7773 22.2049 21.871 22.0382 22.0377C21.8715 22.2044 21.7778 22.4305 21.7778 22.6662V47.5551C21.7778 47.7909 21.8715 48.017 22.0382 48.1837C22.2049 48.3504 22.431 48.444 22.6667 48.444H29.7778C29.7852 48.2977 29.803 48.1522 29.8312 48.0085Z" fill="#F05735"/>
<path id="Vector_6" d="M39.5556 37.0391L38.8623 37.7413C39.0343 37.7058 39.192 37.6202 39.3154 37.4952C39.4388 37.3702 39.5224 37.2115 39.5556 37.0391Z" fill="#F05735"/>
<path id="Vector_7" d="M25.3335 43.9458C25.3335 44.1815 25.4271 44.4076 25.5938 44.5743C25.7605 44.741 25.9866 44.8347 26.2224 44.8347H30.5246L30.7913 43.6791L30.9068 43.1902V43.1458H27.1113V41.3325H32.7468L34.5246 39.5547H26.2224C25.9866 39.5547 25.7605 39.6483 25.5938 39.815C25.4271 39.9817 25.3335 40.2078 25.3335 40.4436V43.9458Z" fill="#F05735"/>
<path id="Vector_8" d="M49.769 34.8184L46.7735 31.8229C46.6405 31.6896 46.4826 31.5838 46.3087 31.5117C46.1348 31.4395 45.9484 31.4023 45.7601 31.4023C45.5719 31.4023 45.3855 31.4395 45.2116 31.5117C45.0377 31.5838 44.8798 31.6896 44.7468 31.8229L32.5601 44.0807L31.5557 48.3562C31.5181 48.5407 31.5173 48.7307 31.5532 48.9155C31.5892 49.1003 31.6612 49.2762 31.7653 49.4331C31.8693 49.5899 32.0033 49.7248 32.1595 49.8298C32.3157 49.9348 32.4912 50.008 32.6757 50.0451C32.7673 50.0543 32.8596 50.0543 32.9513 50.0451C33.0602 50.0629 33.1712 50.0629 33.2801 50.0451L37.5913 49.094L49.769 36.8896C49.9021 36.7574 50.0076 36.6002 50.0797 36.427C50.1517 36.2539 50.1888 36.0682 50.1888 35.8807C50.1888 35.6931 50.1517 35.5074 50.0797 35.3343C50.0076 35.1612 49.9021 35.004 49.769 34.8718V34.8184ZM36.6846 47.4762L33.4313 48.1962L34.2224 44.9696L43.3601 35.734L45.8668 38.2407L36.6846 47.4762ZM46.8713 37.2362L44.3646 34.7296L45.7779 33.334L48.3024 35.8584L46.8713 37.2362Z" fill="#F05735"/>
</g>
</g>
</g>
<path id="Vector_9" d="M25 19.5C25 15.3579 21.6421 12 17.5 12C13.3579 12 10 15.3579 10 19.5V23.5C10 27.6421 13.3579 31 17.5 31C21.6421 31 25 27.6421 25 23.5V19.5Z" fill="#0D0D0D"/>
<path id="Vector_10" d="M18.4023 15.9922V26H17.1924V17.5713L15.1006 18.501V17.3594L18.2178 15.9922H18.4023Z" fill="white"/>
</g>
<defs>
<clipPath id="clip0_1503_111667">
<rect width="72" height="72" fill="white"/>
</clipPath>
</defs>
</svg>
