<svg width="101" height="14" viewBox="0 0 101 14" fill="none" xmlns="http://www.w3.org/2000/svg">
<g clip-path="url(#clip0_9341_65821)">
<path fill-rule="evenodd" clip-rule="evenodd" d="M5.20177 0.231445H0.5V13.7665H2.59529V9.41652H4.96362C7.58694 9.41652 9.73335 7.83087 9.73335 4.79469V4.75633C9.73335 2.02956 7.99591 0.231445 5.20177 0.231445ZM7.60378 4.85266C7.60378 6.2642 6.61568 7.2698 5.03158 7.2698H2.59529V2.39735H5.03158C6.59884 2.39735 7.60378 3.22885 7.60378 4.81367V4.85266Z" fill="#DCA126"/>
<path d="M24.7734 0.232345H27.0395L29.8841 10.2677L32.8142 0.193359H34.5859L37.5166 10.2677L40.3618 0.232345H42.5593L38.4193 13.8643H36.5964L33.6663 4.13819L30.7358 13.8643H28.9303L24.7734 0.232345Z" fill="#DCA126"/>
<path d="M44.7109 0.231445H53.5529V2.35857H46.8063V5.87723H52.7861V8.00414H46.8063V11.6396H53.6376V13.7665H44.7109V0.231445Z" fill="#DCA126"/>
<path fill-rule="evenodd" clip-rule="evenodd" d="M61.4403 0.231445H56.125V13.7665H58.2203V9.04914H60.8437L63.7743 13.7665H66.2617L63.0411 8.64298C64.6939 8.10171 65.8697 6.76731 65.8697 4.54345V4.50529C65.8697 3.3258 65.5118 2.31958 64.8815 1.58503C64.1147 0.734554 62.9396 0.231445 61.4403 0.231445ZM63.74 4.67938C63.74 6.05195 62.7862 6.94141 61.287 6.94141H58.2203V2.39735H61.2701C62.82 2.39735 63.74 3.19048 63.74 4.6404V4.67938Z" fill="#DCA126"/>
<path d="M21.5141 1.47559L20.3781 3.21408C21.2002 4.10004 21.8816 5.58255 21.8816 6.99966V7.03783C21.8816 9.66785 19.9721 11.9955 17.6037 11.9955C15.236 11.9955 13.2971 9.62969 13.2971 6.99966V6.9615C13.2971 5.54088 13.8751 4.18338 14.6911 3.30691L13.673 1.49724C12.2254 2.78812 11.3516 4.78818 11.3516 6.99966V7.03783C11.3516 10.8473 13.9069 13.9997 17.5701 13.9997C21.2327 13.9997 23.8224 10.8086 23.8224 6.99966V6.9615C23.8224 4.74651 22.9575 2.75532 21.5141 1.47559Z" fill="#DCA126"/>
<path d="M18.5193 6.18973C18.5193 6.77597 18.1008 7.25185 17.5836 7.25185C17.0677 7.25185 16.6484 6.77597 16.6484 6.18973V1.0615C16.6484 0.475056 17.0677 0 17.5836 0C18.1008 0 18.5193 0.475056 18.5193 1.0615V6.18973Z" fill="#DCA126"/>
<path d="M13.672 1.49688C14.013 1.1097 14.5639 1.2675 14.9572 1.71388C15.3506 2.16027 15.0317 2.91998 14.6902 3.30696C14.3492 3.69393 14.1002 3.54665 13.7069 3.10027C13.3136 2.65368 13.331 1.88386 13.672 1.49688Z" fill="#DCA126"/>
<path d="M21.516 1.47587C21.1751 1.08889 20.6026 1.26835 20.2092 1.71494C19.8152 2.16132 20.0383 2.82677 20.38 3.21457C20.721 3.60216 21.0656 3.5475 21.4588 3.09988C21.8522 2.65474 21.857 1.86222 21.516 1.47587Z" fill="#DCA126"/>
<path fill-rule="evenodd" clip-rule="evenodd" d="M72.6152 0.0966797H67.9141V13.6282H70.0094V9.27886H72.3766C74.9999 9.27886 77.1456 7.69383 77.1456 4.6591V4.62011C77.1456 1.89458 75.4083 0.0966797 72.6152 0.0966797ZM75.0166 4.71644C75.0166 6.12799 74.0286 7.13276 72.4444 7.13276H70.0094V2.26175H72.4444C74.0118 2.26175 75.0166 3.09326 75.0166 4.67828V4.71644Z" fill="#467BA8"/>
<path fill-rule="evenodd" clip-rule="evenodd" d="M84.2655 0H82.3236L77.0781 13.6285H79.224L80.4502 10.3617H86.0877L87.2972 13.6285H89.511L84.2655 0ZM83.2605 2.84166L85.3217 8.25456H81.2164L83.2605 2.84166Z" fill="#467BA8"/>
<path d="M93.2113 8.29327L88.4766 0.0966797H90.9628L94.2843 6.07003L97.6564 0.0966797H100.058L95.3228 8.2351V13.6282H93.2113V8.29327Z" fill="#467BA8"/>
</g>
<defs>
<clipPath id="clip0_9341_65821">
<rect width="99.5556" height="14" fill="white" transform="translate(0.5)"/>
</clipPath>
</defs>
</svg>
